<svg width="96" height="96" xmlns="http://www.w3.org/2000/svg" xmlns:xlink="http://www.w3.org/1999/xlink" xml:space="preserve" overflow="hidden"><defs><clipPath id="clip0"><rect x="592" y="312" width="96" height="96"/></clipPath></defs><g clip-path="url(#clip0)" transform="translate(-592 -312)"><path d="M664.5 375.1C662.9 373.5 660.5 372.7 658.3 373.2L653.8 368.8C657.8 363.6 660 357.2 660 350.6 660.1 333.9 646.6 320.4 630 320.3 613.4 320.2 599.9 333.7 599.8 350.3 599.7 366.9 613.2 380.4 629.8 380.5 636.4 380.5 642.9 378.3 648.2 374.3L652.6 378.7C652.2 381 652.9 383.3 654.5 385L667 397.5C669.7 400.2 674.2 400.2 676.9 397.5 679.6 394.8 679.6 390.3 676.9 387.6L664.5 375.1ZM630 374.5C616.7 374.5 606 363.8 606 350.5 606 337.2 616.7 326.5 630 326.5 643.3 326.5 654 337.2 654 350.5 654 363.7 643.2 374.5 630 374.5Z" fill="#FFFFFF"/><path d="M651.5 349 645.8 349C645.3 349.1 644.8 349.4 644.5 349.8L640.7 353.9 637.5 342.8C637.2 341.9 636.2 341.3 635.3 341.6 634.8 341.8 634.3 342.1 634.1 342.7L628.1 358.6 624 336.6C623.8 335.6 622.9 335 622 335.2 621.4 335.3 620.9 335.8 620.6 336.4L616.3 349 608.5 349 608.5 353 617.6 353C618.4 352.9 619.1 352.3 619.3 351.5L621.8 343.9 625.8 365.4C625.9 366.2 626.6 366.8 627.4 366.8L627.6 366.8C628.3 366.8 629 366.4 629.3 365.7L635.7 348.9 638.3 357.9C638.6 358.8 639.5 359.4 640.5 359.1 640.8 359 641.1 358.8 641.3 358.6L646.7 353 651.6 353 651.6 349Z" fill="#FFFFFF"/></g></svg>